<?xml version="1.0" standalone="no"?>
<!DOCTYPE svg PUBLIC "-//W3C//DTD SVG 20010904//EN"
 "http://www.w3.org/TR/2001/REC-SVG-20010904/DTD/svg10.dtd">
<svg version="1.0" xmlns="http://www.w3.org/2000/svg"
 width="143.000000pt" height="204.000000pt" viewBox="0 0 143.000000 204.000000"
 preserveAspectRatio="xMidYMid meet">

<g transform="translate(0.000000,204.000000) scale(0.100000,-0.100000)"
fill="#000000" stroke="none">
<path d="M721 1954 c-198 -43 -400 -217 -482 -414 -42 -99 -62 -216 -53 -305
12 -128 14 -131 326 -705 53 -96 110 -202 128 -235 39 -74 53 -85 108 -85 34
0 49 6 71 28 40 40 532 867 555 932 22 63 26 160 9 182 -12 14 -10 42 6 104 5
17 5 37 1 44 -5 7 -6 19 -3 26 8 22 -18 115 -30 107 -6 -3 -7 -1 -3 5 9 15
-17 65 -61 120 -142 174 -347 245 -572 196z m275 -183 c64 -28 111 -76 120
-120 7 -34 7 -34 -25 -28 -17 4 -73 12 -124 18 -50 6 -99 17 -107 24 -27 22
-50 25 -123 15 -99 -14 -163 -37 -181 -64 -8 -13 -27 -27 -43 -31 -15 -3 -59
-22 -97 -41 -38 -18 -71 -32 -74 -30 -2 3 -1 19 3 37 11 47 115 148 190 184
100 47 186 65 305 62 83 -3 116 -8 156 -26z m8 -166 c27 -4 60 -11 72 -16 22
-8 23 -11 12 -36 -26 -62 -36 -66 -129 -52 -46 7 -88 16 -93 20 -5 4 -5 28 -2
54 l7 46 42 -5 c23 -3 64 -8 91 -11z m-444 -74 c0 -37 -16 -53 -76 -76 -27
-10 -59 -25 -71 -32 -27 -18 -38 -12 -52 28 l-10 31 82 38 c103 49 127 51 127
11z m420 -245 l0 -194 -56 -4 -55 -3 2 126 c1 69 -1 131 -5 138 -4 7 -17 11
-29 9 -16 -2 -23 3 -25 18 -2 15 10 28 48 52 27 17 50 36 50 42 0 5 16 10 35
10 l35 0 0 -194z m-180 14 c0 -85 -4 -171 -8 -190 -7 -34 -10 -35 -56 -38
l-49 -3 7 129 c6 111 4 130 -9 135 -8 4 -22 4 -30 1 -11 -5 -15 1 -15 20 0 18
8 30 28 40 15 8 38 26 52 41 17 19 32 25 53 23 l29 -3 -2 -155z m-190 105 c22
-24 23 -28 16 -146 -9 -164 -32 -204 -125 -216 -33 -5 -44 -1 -65 20 -17 17
-26 37 -26 57 0 27 3 30 35 32 19 0 41 1 47 2 7 1 13 -7 13 -16 0 -36 20 -22
23 16 3 34 1 38 -15 31 -37 -15 -58 -16 -78 -1 -17 12 -20 26 -19 90 0 42 6
86 13 100 31 57 139 76 181 31z"/>
<path d="M510 1305 c0 -37 4 -65 10 -65 6 0 10 28 10 65 0 37 -4 65 -10 65 -6
0 -10 -28 -10 -65z"/>
</g>
</svg>
